<?xml version="1.0" encoding="UTF-8"?>
<svg version="1.1" xmlns="http://www.w3.org/2000/svg" width="225" height="225">
<path d="M0 0 C74.25 0 148.5 0 225 0 C225 74.25 225 148.5 225 225 C150.75 225 76.5 225 0 225 C0 150.75 0 76.5 0 0 Z " fill="#FEFEFE" transform="translate(0,0)"/>
<path d="M0 0 C22.15192294 16.39476091 49.93625523 37.74349827 55.9609375 66.19140625 C57.95474798 83.58072238 51.86395149 101.0506584 41.86328125 115.1484375 C39.63871576 117.90592975 37.32042333 120.54863303 34.9609375 123.19140625 C34.01835421 124.30932275 33.07974218 125.43059628 32.14453125 126.5546875 C17.44750579 144.15575606 -1.17479175 165.15239797 -25.4765625 167.52734375 C-50.92677057 167.80640305 -69.67064782 155.133329 -87.55859375 138.484375 C-89.67415998 136.52872559 -91.83149541 134.66574744 -94.0390625 132.81640625 C-108.67641034 119.97505201 -121.23714977 103.82651938 -123.27734375 83.859375 C-123.93187089 61.98438912 -112.812433 45.04739025 -99.0390625 29.19140625 C-98.49000244 28.55098389 -97.94094238 27.91056152 -97.37524414 27.25073242 C-71.30796234 -2.93930265 -38.42409297 -26.08556458 0 0 Z " fill="#3765AF" transform="translate(149.0390625,36.80859375)"/>
<path d="M0 0 C4.875 0.875 4.875 0.875 6 2 C6.28359002 6.55591661 6.23189914 11.12382056 6.25 15.6875 C6.270625 16.96818359 6.29125 18.24886719 6.3125 19.56835938 C6.32023437 21.42750977 6.32023437 21.42750977 6.328125 23.32421875 C6.3374707 24.45947998 6.34681641 25.59474121 6.35644531 26.7644043 C5.86375423 31.23675696 4.33170273 34.58525121 1.24609375 37.86328125 C0.64925781 38.34152344 0.05242187 38.81976563 -0.5625 39.3125 C-1.46162109 40.04919922 -1.46162109 40.04919922 -2.37890625 40.80078125 C-6.32573199 43.72048125 -10.24962242 43.6591433 -15 43 C-20.09522018 41.0100979 -23.96463325 37.90298528 -26.375 32.953125 C-28.00953213 27.84521211 -27.81808404 22.98128255 -25.375 18.1875 C-21.77470661 13.35552729 -18.4515698 11.00523217 -12.5 10.125 C-8.59658449 9.82778562 -5.62444738 10.42011268 -2 12 C-1.90912109 10.95199219 -1.90912109 10.95199219 -1.81640625 9.8828125 C-1.73261719 8.97273438 -1.64882812 8.06265625 -1.5625 7.125 C-1.48128906 6.22007813 -1.40007812 5.31515625 -1.31640625 4.3828125 C-1 2 -1 2 0 0 Z " fill="#F6F7FB" transform="translate(107,91)"/>
<path d="M0 0 C4.35992437 2.82505304 8.08289455 6.08506789 10 11 C10.78590613 16.61361521 10.24234268 21.24456407 7 26 C3.0209786 30.01163633 -0.55412568 32.12330138 -6.25 32.3125 C-11.04986325 32.23445344 -14.36293072 31.16594632 -18 28 C-21.97023818 23.01175204 -22.6432003 18.92204063 -22.3828125 12.5859375 C-21.60361823 7.32240068 -19.05385393 4.79576726 -14.9375 1.6875 C-9.76240924 -1.28542448 -5.69073772 -1.66132827 0 0 Z " fill="#F7F8FB" transform="translate(171,102)"/>
<path d="M0 0 C5.00230198 2.45567552 8.49851535 5.9970307 11 11 C11.66115283 16.32173836 11.39878926 20.89182248 8.38671875 25.42578125 C4.61077862 29.71227103 0.24347501 32.2579731 -5.5 32.625 C-10.45136745 32.32517671 -14.36274059 30.33278295 -18 27 C-21.95529413 21.6353482 -21.7768047 16.43264116 -21 10 C-16.74390987 0.83303665 -9.4847423 -1.39938821 0 0 Z " fill="#F8F9FC" transform="translate(68,102)"/>
<path d="M0 0 C5.00230198 2.45567552 8.49851535 5.9970307 11 11 C11.39645992 16.84778387 10.9269918 20.75160091 8 26 C3.17861166 30.57413765 -1.02280215 32.53515804 -7.6171875 32.3828125 C-12.74503884 31.55899376 -16.65348499 28.82630771 -19.69921875 24.6953125 C-21.98806027 19.95266791 -21.62111053 15.14335348 -21 10 C-16.74390987 0.83303665 -9.4847423 -1.39938821 0 0 Z " fill="#F8F9FC" transform="translate(136,102)"/>
<path d="M0 0 C2.86830829 2.01391859 4.61592935 3.45434983 5.48046875 6.93359375 C5.75501158 10.85881416 5.22076904 12.66884645 3 16 C-0.33115355 18.22076904 -2.14118584 18.75501158 -6.06640625 18.48046875 C-9.54565017 17.61592935 -10.98608141 15.86830829 -13 13 C-14.125 9.5625 -14.125 9.5625 -14 6 C-10.39251727 -0.32370503 -6.95337118 -1.64995248 0 0 Z " fill="#3866AF" transform="translate(169,109)"/>
<path d="M0 0 C2.86830829 2.01391859 4.61592935 3.45434983 5.48046875 6.93359375 C5.75501158 10.85881416 5.22076904 12.66884645 3 16 C-0.34888309 18.23258873 -2.13020876 18.7003485 -6.06640625 18.41015625 C-9.36385138 17.71069819 -10.86439595 16.58861097 -13 14 C-14.04778191 11.2488408 -14.39842786 8.92367489 -14 6 C-10.50720753 -0.3692098 -6.88378177 -1.63343974 0 0 Z " fill="#3866AF" transform="translate(135,109)"/>
<path d="M0 0 C2.74483673 1.24765306 4.47294058 2.35315435 6.375 4.6875 C7.34637358 8.28158224 7.1124099 11.45192136 6 15 C3.26052166 18.22291569 1.6851912 18.90211554 -2.5 19.5 C-6.53761333 18.9231981 -8.14650217 17.85349783 -11 15 C-12.55024464 11.89951072 -12.28992015 9.42105782 -12 6 C-8.56065403 0.72633618 -6.24498522 -0.48980276 0 0 Z " fill="#3766AF" transform="translate(99,108)"/>
<path d="M0 0 C2.9375 2.125 2.9375 2.125 5 5 C5.51521375 9.19531196 5.47609387 12.48134029 3 16 C-0.68497796 18.45665197 -3.71971786 18.70086491 -8 18 C-10.8100346 16.20636089 -12.50940468 14.98119065 -14 12 C-14.40417552 9.03604618 -14.56382171 6.91095074 -12.953125 4.30859375 C-8.66744425 -0.92245776 -6.57621564 -1.56045795 0 0 Z " fill="#3766AF" transform="translate(67,109)"/>
</svg>
